<?xml version="1.0" encoding="utf-8"?>
<!-- Generator: Adobe Illustrator 27.5.0, SVG Export Plug-In . SVG Version: 6.00 Build 0)  -->
<svg version="1.1" xmlns="http://www.w3.org/2000/svg" xmlns:xlink="http://www.w3.org/1999/xlink" x="0px" y="0px"
	 viewBox="0 0 500 500" style="enable-background:new 0 0 500 500;" xml:space="preserve">
<g id="BACKGROUND">
	<rect style="fill:#FFFFFF;" width="500" height="500"/>
</g>
<g id="OBJECTS">
	<g>
		<g>
			<g>
				<g>
					<path style="fill:#01C897;" d="M257.104,298.232c9.444-3.554,17.687-14.237,15.919-24.845
						c-2.828-16.966-8.075-26.81-8.075-26.81l-3.392,5.653c0,0-5.811-15.355,5.147-29.848c0,0-21.561-5.302-35.7,31.457
						c-5.104,13.27-5.058,37.638,10.727,44.272C246.829,300.254,252.258,300.056,257.104,298.232z"/>
				</g>
				<g>
					<path style="fill:#01C897;" d="M242.927,125.937c-9.379,3.529-17.565,14.139-15.81,24.674c2.808,16.85,8.02,26.626,8.02,26.626
						l3.368-5.614c0,0,5.771,15.25-5.111,29.642c0,0,21.413,5.266,35.454-31.241c5.069-13.179,5.023-37.379-10.653-43.967
						C253.131,123.929,247.739,124.126,242.927,125.937z"/>
				</g>
			</g>
			<g>
				<g>
					<g>
						<path style="fill:#245AE0;" d="M328.189,249.07c1.644-9.956-3.486-22.436-13.557-26.209
							c-16.107-6.034-27.256-6.412-27.256-6.412l3.2,5.764c0,0-16.204-2.645-23.275-19.381c0,0-15.372,16.022,9.393,46.646
							c8.94,11.056,30.067,23.199,43.704,12.846C324.803,258.979,327.346,254.178,328.189,249.07z"/>
					</g>
					<g>
						<path style="fill:#245AE0;" d="M171.889,175.2c-1.633,9.887,3.462,22.282,13.463,26.029
							c15.997,5.993,27.069,6.367,27.069,6.367l-3.178-5.724c0,0,16.092,2.627,23.115,19.248c0,0,15.267-15.911-9.328-46.325
							c-8.879-10.98-29.86-23.04-43.403-12.757C175.252,165.359,172.726,170.127,171.889,175.2z"/>
					</g>
				</g>
			</g>
			<g>
				<g>
					<g>
						<path style="fill:#D82148;" d="M321.157,162.927c-7.8-6.402-21.173-8.199-29.476-1.364
							c-13.28,10.932-19.181,20.399-19.181,20.399l6.591,0.111c0,0-10.393,12.71-28.422,10.467c0,0,6.189,21.324,45.093,15.188
							c14.045-2.215,35.125-14.439,32.977-31.426C328.045,170.815,325.159,166.212,321.157,162.927z"/>
					</g>
					<g>
						<path style="fill:#D82148;" d="M179.033,261.353c7.746,6.358,21.027,8.143,29.273,1.355
							c13.188-10.857,19.049-20.258,19.049-20.258l-6.546-0.11c0,0,10.321-12.623,28.227-10.395c0,0-6.146-21.177-44.783-15.084
							c-13.948,2.2-34.883,14.339-32.75,31.21C172.192,253.52,175.058,258.091,179.033,261.353z"/>
					</g>
				</g>
			</g>
		</g>
	</g>
	<g>
		<g>
			
				<linearGradient id="SVGID_1_" gradientUnits="userSpaceOnUse" x1="466.53" y1="261.7713" x2="466.53" y2="394.1706" gradientTransform="matrix(0.8817 -0.4719 0.4719 0.8817 -265.7513 231.623)">
				<stop  offset="0.0033" style="stop-color:#FBCB3B"/>
				<stop  offset="0.344" style="stop-color:#FBC83B"/>
				<stop  offset="0.5532" style="stop-color:#FBC03B"/>
				<stop  offset="0.7268" style="stop-color:#FBB23B"/>
				<stop  offset="0.8801" style="stop-color:#FB9D3B"/>
				<stop  offset="0.9967" style="stop-color:#FB883B"/>
			</linearGradient>
			<path style="fill:url(#SVGID_1_);" d="M283.761,279.171l-6.796-22.233l14.731,17.986c1.437,2.05,0.939,4.877-1.111,6.313
				c-2.05,1.437-4.876,0.939-6.313-1.111C284.065,279.829,283.889,279.494,283.761,279.171z"/>
		</g>
		<g>
			
				<linearGradient id="SVGID_00000124865154935012704890000003342070076178500538_" gradientUnits="userSpaceOnUse" x1="525.3425" y1="293.2505" x2="525.3425" y2="425.6498" gradientTransform="matrix(-0.8817 -0.4719 -0.4719 0.8817 833.7612 231.623)">
				<stop  offset="0.0033" style="stop-color:#FBCB3B"/>
				<stop  offset="0.344" style="stop-color:#FBC83B"/>
				<stop  offset="0.5532" style="stop-color:#FBC03B"/>
				<stop  offset="0.7268" style="stop-color:#FBB23B"/>
				<stop  offset="0.8801" style="stop-color:#FB9D3B"/>
				<stop  offset="0.9967" style="stop-color:#FB883B"/>
			</linearGradient>
			<path style="fill:url(#SVGID_00000124865154935012704890000003342070076178500538_);" d="M217.54,279.171l6.796-22.233
				l-14.731,17.986c-1.437,2.05-0.939,4.877,1.111,6.313c2.05,1.437,4.876,0.939,6.313-1.111
				C217.236,279.829,217.412,279.494,217.54,279.171z"/>
		</g>
		<g>
			
				<linearGradient id="SVGID_00000093176503211390303940000002130923045674426273_" gradientUnits="userSpaceOnUse" x1="409.6651" y1="364.8905" x2="409.6651" y2="497.2897" gradientTransform="matrix(-0.8817 0.4719 -0.4719 -0.8817 765.5794 308.4276)">
				<stop  offset="0.0033" style="stop-color:#FBCB3B"/>
				<stop  offset="0.344" style="stop-color:#FBC83B"/>
				<stop  offset="0.5532" style="stop-color:#FBC03B"/>
				<stop  offset="0.7268" style="stop-color:#FBB23B"/>
				<stop  offset="0.8801" style="stop-color:#FB9D3B"/>
				<stop  offset="0.9967" style="stop-color:#FB883B"/>
			</linearGradient>
			<path style="fill:url(#SVGID_00000093176503211390303940000002130923045674426273_);" d="M217.54,143.127l6.796,22.233
				l-14.731-17.986c-1.437-2.05-0.939-4.877,1.111-6.313c2.05-1.437,4.876-0.939,6.313,1.111
				C217.236,142.468,217.412,142.804,217.54,143.127z"/>
		</g>
		<g>
			
				<linearGradient id="SVGID_00000182512124665292552760000009545148096903699903_" gradientUnits="userSpaceOnUse" x1="471.0748" y1="397.7598" x2="471.0748" y2="530.1591" gradientTransform="matrix(0.8817 0.4719 0.4719 -0.8817 -333.9332 308.4276)">
				<stop  offset="0.0033" style="stop-color:#FBCB3B"/>
				<stop  offset="0.344" style="stop-color:#FBC83B"/>
				<stop  offset="0.5532" style="stop-color:#FBC03B"/>
				<stop  offset="0.7268" style="stop-color:#FBB23B"/>
				<stop  offset="0.8801" style="stop-color:#FB9D3B"/>
				<stop  offset="0.9967" style="stop-color:#FB883B"/>
			</linearGradient>
			<path style="fill:url(#SVGID_00000182512124665292552760000009545148096903699903_);" d="M283.761,143.127l-6.796,22.233
				l14.731-17.986c1.437-2.05,0.939-4.877-1.111-6.313c-2.05-1.437-4.876-0.939-6.313,1.111
				C284.065,142.468,283.889,142.804,283.761,143.127z"/>
		</g>
		<g>
			
				<linearGradient id="SVGID_00000163059571335547917350000017480767634479774892_" gradientUnits="userSpaceOnUse" x1="529.5746" y1="431.3477" x2="529.5746" y2="563.7469" gradientTransform="matrix(0.0119 1 1 -0.0119 -150.3118 -311.9675)">
				<stop  offset="0.0033" style="stop-color:#FBCB3B"/>
				<stop  offset="0.344" style="stop-color:#FBC83B"/>
				<stop  offset="0.5532" style="stop-color:#FBC03B"/>
				<stop  offset="0.7268" style="stop-color:#FBB23B"/>
				<stop  offset="0.8801" style="stop-color:#FB9D3B"/>
				<stop  offset="0.9967" style="stop-color:#FB883B"/>
			</linearGradient>
			<path style="fill:url(#SVGID_00000163059571335547917350000017480767634479774892_);" d="M326.722,207.478l-22.754,4.771
				l22.861,4.228c2.489,0.27,4.725-1.529,4.995-4.018s-1.529-4.725-4.018-4.994C327.445,207.426,327.067,207.435,326.722,207.478z"
				/>
		</g>
		<g>
			
				<linearGradient id="SVGID_00000060712645708947656430000011162403439110368949_" gradientUnits="userSpaceOnUse" x1="531.1737" y1="565.68" x2="531.1737" y2="698.0792" gradientTransform="matrix(-0.0119 1 -1 -0.0119 784.657 -311.9675)">
				<stop  offset="0.0033" style="stop-color:#FBCB3B"/>
				<stop  offset="0.344" style="stop-color:#FBC83B"/>
				<stop  offset="0.5532" style="stop-color:#FBC03B"/>
				<stop  offset="0.7268" style="stop-color:#FBB23B"/>
				<stop  offset="0.8801" style="stop-color:#FB9D3B"/>
				<stop  offset="0.9967" style="stop-color:#FB883B"/>
			</linearGradient>
			<path style="fill:url(#SVGID_00000060712645708947656430000011162403439110368949_);" d="M173.278,207.478l22.754,4.771
				l-22.861,4.228c-2.489,0.27-4.725-1.529-4.995-4.018s1.529-4.725,4.018-4.994C172.555,207.426,172.933,207.435,173.278,207.478z"
				/>
		</g>
	</g>
</g>
<g id="TEXTS">
	<g>
		<text transform="matrix(1 0 0 1 125.3105 356.6061)" style="fill:#151D3B; font-family:'Lato-Black'; font-size:34.0295px;">CULTURE GEAR</text>
	</g>
	<g>
		<text transform="matrix(1 0 0 1 198.7139 375.4807)" style="fill:#01C897; font-family:'Lato-Regular'; font-size:14.829px;">TAGLINE HERE</text>
	</g>
</g>
</svg>
